<svg xmlns="http://www.w3.org/2000/svg" viewBox="0 0 1200 680" role="img" aria-labelledby="title desc">
  <title id="title">VSW project preview</title>
  <desc id="desc">Concept preview for a defensive vulnerability scanner web app dashboard.</desc>
  <rect width="1200" height="680" fill="#0b1020"/>
  <g opacity=".5">
    <path d="M58 92h212m24 0h126m-298 92h190m34 0h86m-276 94h160m50 0h132m-326 94h214m30 0h92" stroke="#24345f" stroke-width="2"/>
    <path d="M807 104h112l34 34h166M827 214h204m-116 92h216m-306 94h188m-118 94h210" stroke="#1f2d52" stroke-width="2"/>
  </g>
  <rect x="58" y="64" width="1084" height="552" rx="34" fill="#11172a" stroke="#33446f" stroke-width="3"/>
  <rect x="96" y="106" width="410" height="92" rx="22" fill="#0b1020" stroke="#30446f" stroke-width="2"/>
  <text x="130" y="146" fill="#9fd8ff" font-family="Arial, sans-serif" font-size="24" font-weight="700">TARGET</text>
  <text x="130" y="179" fill="#f4f1ff" font-family="Arial, sans-serif" font-size="30" font-weight="700">authorized-domain.ch</text>
  <rect x="530" y="106" width="198" height="92" rx="22" fill="#12243c" stroke="#4a7bbd" stroke-width="2"/>
  <text x="558" y="147" fill="#8fd3ff" font-family="Arial, sans-serif" font-size="22" font-weight="700">RISK</text>
  <text x="558" y="181" fill="#7df0b1" font-family="Arial, sans-serif" font-size="34" font-weight="800">LOW</text>
  <rect x="752" y="106" width="300" height="92" rx="22" fill="#18132c" stroke="#64518f" stroke-width="2"/>
  <text x="784" y="147" fill="#c9b5ff" font-family="Arial, sans-serif" font-size="22" font-weight="700">MODE</text>
  <text x="784" y="181" fill="#f4f1ff" font-family="Arial, sans-serif" font-size="30" font-weight="800">defensive checks</text>
  <g transform="translate(96 246)">
    <rect width="502" height="294" rx="28" fill="#0d1428" stroke="#30446f" stroke-width="2"/>
    <text x="34" y="55" fill="#f4f1ff" font-family="Arial, sans-serif" font-size="32" font-weight="800">Scan overview</text>
    <g font-family="Arial, sans-serif" font-size="24" font-weight="700">
      <rect x="34" y="88" width="430" height="52" rx="16" fill="#121f37"/>
      <circle cx="62" cy="114" r="9" fill="#7df0b1"/>
      <text x="88" y="123" fill="#d7d2ea">HTTP security headers</text>
      <text x="386" y="123" fill="#7df0b1">ok</text>
      <rect x="34" y="154" width="430" height="52" rx="16" fill="#121f37"/>
      <circle cx="62" cy="180" r="9" fill="#ffd166"/>
      <text x="88" y="189" fill="#d7d2ea">TLS certificate</text>
      <text x="346" y="189" fill="#ffd166">review</text>
      <rect x="34" y="220" width="430" height="52" rx="16" fill="#121f37"/>
      <circle cx="62" cy="246" r="9" fill="#7df0b1"/>
      <text x="88" y="255" fill="#d7d2ea">Safe port list</text>
      <text x="386" y="255" fill="#7df0b1">ok</text>
    </g>
  </g>
  <g transform="translate(646 246)">
    <rect width="406" height="294" rx="28" fill="#101229" stroke="#3f3267" stroke-width="2"/>
    <text x="34" y="55" fill="#f4f1ff" font-family="Arial, sans-serif" font-size="32" font-weight="800">Report</text>
    <g fill="none" stroke-linecap="round" stroke-width="12">
      <path d="M52 238V144" stroke="#7df0b1"/>
      <path d="M100 238V112" stroke="#4f9ef8"/>
      <path d="M148 238V164" stroke="#ffd166"/>
      <path d="M196 238V90" stroke="#8d6cff"/>
      <path d="M244 238V132" stroke="#4f9ef8"/>
      <path d="M292 238V172" stroke="#7df0b1"/>
      <path d="M340 238V118" stroke="#8d6cff"/>
    </g>
    <path d="M52 238h298" stroke="#33446f" stroke-width="3"/>
    <text x="34" y="94" fill="#a9b7d9" font-family="Arial, sans-serif" font-size="20">structured findings</text>
  </g>
  <g transform="translate(96 558)">
    <rect width="210" height="42" rx="21" fill="#2c2049" stroke="#8d6cff"/>
    <text x="26" y="29" fill="#f4f1ff" font-family="Arial, sans-serif" font-size="18" font-weight="700">FastAPI backend</text>
    <rect x="230" width="184" height="42" rx="21" fill="#14273c" stroke="#4f9ef8"/>
    <text x="256" y="29" fill="#f4f1ff" font-family="Arial, sans-serif" font-size="18" font-weight="700">React frontend</text>
    <rect x="434" width="228" height="42" rx="21" fill="#143323" stroke="#7df0b1"/>
    <text x="460" y="29" fill="#f4f1ff" font-family="Arial, sans-serif" font-size="18" font-weight="700">authorized use only</text>
  </g>
</svg>
